<svg fill="#FFFFFF" xmlns="http://www.w3.org/2000/svg"  viewBox="0 0 50 50" width="50px" height="50px"><path d="M 15.001953 0.75585938 L 14.501953 1.0429688 L 10.501953 3.34375 L 10 3.6308594 L 10 4.2109375 L 10 8.8300781 L 10 9.40625 L 10.5 9.6953125 L 34.5 23.556641 L 35 23.845703 L 35.5 23.556641 L 39.5 21.246094 L 40 20.957031 L 40 20.380859 L 40 15.759766 L 40 15.181641 L 39.5 14.892578 L 15.5 1.0429688 L 15.001953 0.75585938 z M 15 2.1953125 L 38.5 15.761719 L 35 17.783203 L 11.501953 4.2148438 L 15 2.1953125 z M 11.25 4.6445312 L 34.75 18.216797 L 34.75 22.257812 L 11.25 8.6914062 L 11.25 4.6445312 z M 15 13.455078 L 14.5 13.744141 L 10.5 16.054688 L 10 16.34375 L 10 16.919922 L 10 21.539062 L 10 22.117188 L 10.5 22.40625 L 34.5 36.257812 L 35 36.546875 L 35.5 36.257812 L 39.5 33.947266 L 40 33.658203 L 40 33.080078 L 40 28.460938 L 40 27.882812 L 39.5 27.59375 L 15.5 13.742188 L 15 13.455078 z M 15 14.896484 L 38.501953 28.464844 L 35 30.484375 L 11.501953 16.916016 L 15 14.896484 z M 38.75 16.195312 L 38.75 20.236328 L 35.25 22.257812 L 35.25 18.216797 L 38.75 16.195312 z M 11.25 17.347656 L 34.75 30.917969 L 34.75 34.958984 L 11.25 21.392578 L 11.25 17.347656 z M 15 26.154297 L 14.5 26.443359 L 10.5 28.753906 L 10 29.042969 L 10 29.619141 L 10 34.240234 L 10 34.818359 L 10.5 35.107422 L 34.5 48.957031 L 35 49.246094 L 35.5 48.957031 L 39.5 46.646484 L 40 46.357422 L 40 45.779297 L 40 41.169922 L 40 40.59375 L 39.5 40.304688 L 15.5 26.443359 L 15 26.154297 z M 15 27.597656 L 38.5 41.166016 L 35 43.185547 L 11.503906 29.617188 L 15 27.597656 z M 38.75 28.896484 L 38.75 32.939453 L 35.25 34.958984 L 35.25 30.917969 L 38.75 28.896484 z M 11.25 30.048828 L 34.75 43.619141 L 34.75 47.660156 L 11.25 34.09375 L 11.25 30.048828 z M 38.75 41.599609 L 38.75 45.640625 L 35.25 47.660156 L 35.25 43.619141 L 38.75 41.599609 z"/></svg>